/* XPM */
static char *coin21740561624[] = {
/* columns rows colors chars-per-pixel */
"32 32 6 1 ",
"  c #57040D",
". c #94070E",
"X c #C80805",
"o c #DA1A12",
"O c #FF3B1F",
"+ c #2B5783",
/* pixels */
"++++++++++++++++++++++++++++++++",
"++++++++++++++++++++++++++++++++",
"++++++++++++++++++++++++++++++++",
"++++++++++++++++++++++++++++++++",
"++++++++++++++++++++++++++++++++",
"++++++++++++++++++++++++++++++++",
"++++++++++++++++++++++++++++++++",
"++++++++++++++++++++++++++++++++",
"++++++++++++....++++++++++++++++",
"++++++++++...OoX.. +++++++++++++",
"++++++++++.Oo.o.oo. ++++++++++++",
"++++++++...oo .Oo.o. +++++++++++",
"++++++++.Oo..Oo. .. X ++++++++++",
"+++++++..o. oo o.O  .. +++++++++",
"+++++++.O.    OoXoX. X  ++++++++",
"+++++++.o.   O. . . .X. ++++++++",
"+++++++...   oo o. X ... +++++++",
"+++++++.Oo  O .o. X.. .  +++++++",
"+++++++.o .ooo.  ..  .X. +++++++",
"++++++++.o.  .Oo.  XX .  +++++++",
"++++++++..O. O o XX ..  ++++++++",
"++++++++++. oo. X..    +++++++++",
"++++++++++++..      ++++++++++++",
"++++++++++++++++++++++++++++++++",
"++++++++++++++++++++++++++++++++",
"++++++++++++++++++++++++++++++++",
"++++++++++++++++++++++++++++++++",
"++++++++++++++++++++++++++++++++",
"++++++++++++++++++++++++++++++++",
"++++++++++++++++++++++++++++++++",
"++++++++++++++++++++++++++++++++",
"++++++++++++++++++++++++++++++++"
};
