/* XPM */
static char *coin41740561827[] = {
/* columns rows colors chars-per-pixel */
"32 32 11 1 ",
"  c #4B692F",
". c #4B4071",
"X c #94070E",
"o c #C80805",
"O c #FF3B1F",
"+ c #58882B",
"@ c #74C43B",
"# c #A69265",
"$ c #DBC49C",
"% c #F7D9AD",
"& c #2B5783",
/* pixels */
"&&&&&&&&&&&&&&&&&&&&&&&&&&&&&&&&",
"&&&&&&&&&&&&&&&&&&&&&&&&&&&&&&&&",
"&&&&&&&&&&&&&&&&&&&&&&&&&&&&&&&&",
"&&&&&&&&&&&&&&&&&&&&&&&&&&&&&&&&",
"&&&&&&&&&&&&&&&&&&&&&&&&&&&&&&&&",
"&&&&&&&&&&&&&&&&&&&&&&&&&&&&&&&&",
"&&&&&&&&&&&&&&&  &&&&&&&&&&&&&&&",
"&&&&&&&&&&&&&& ++ &&&&&&&&&&&&&&",
"&&&&&&&&&&&&&& +@..&&&&&&&&&&&&&",
"&&&&&&&&&&&&&.+#@#+.&&&&&&&&&&&&",
"&&&&&&&&&&&&.+#$$@$@.&&&&&&&&&&&",
"&&&&&&&&&&&.##$$%$$$#.&&&&&&&&&&",
"&&&&&&&&&&.#$$$%O%%$%$.&&&&&&&&&",
"&&&&&&&&&.#$$%%OoXO#%%#.&&&&&&&&",
"&&&&&&&&&.#$%OXoXOXo#$#.&&&&&&&&",
"&&&&&&&&.#$%%OoXXoXXX#$#.&&&&&&&",
"&&&&&&&&.#%OoXXXOXOOoX##.&&&&&&&",
"&&&&&&&.#$%XXOoXoXXoXX#$#.&&&&&&",
"&&&&&&&.#%OoXoXXXOoXOoX##.&&&&&&",
"&&&&&&&.#%oXXXXOXXXXXXX##.&&&&&&",
"&&&&&&&.#%XOoXoXOoXOoX#$#.&&&&&&",
"&&&&&&&.#$#XXOXXoXXoX#$$#.&&&&&&",
"&&&&&&&&.$%##XOoXOoX#$$#.&&&&&&&",
"&&&&&&&&&.#%%#XXXX##$$#.&&&&&&&&",
"&&&&&&&&&&.##$#OoX#$##.&&&&&&&&&",
"&&&&&&&&&&&..##oX###..&&&&&&&&&&",
"&&&&&&&&&&&&&.......&&&&&&&&&&&&",
"&&&&&&&&&&&&&&&&&&&&&&&&&&&&&&&&",
"&&&&&&&&&&&&&&&&&&&&&&&&&&&&&&&&",
"&&&&&&&&&&&&&&&&&&&&&&&&&&&&&&&&",
"&&&&&&&&&&&&&&&&&&&&&&&&&&&&&&&&",
"&&&&&&&&&&&&&&&&&&&&&&&&&&&&&&&&"
};
