/* XPM */
static char *coin51740561951[] = {
/* columns rows colors chars-per-pixel */
"32 32 8 1 ",
"  c #77391E",
". c #BD740D",
"X c #914E31",
"o c #EEAE02",
"O c #F4BE16",
"+ c #FCD437",
"@ c #F7D9AD",
"# c #2B5783",
/* pixels */
"################################",
"################################",
"################################",
"################################",
"################################",
"################################",
"################################",
"################################",
"################...#############",
"###############.+oo.############",
"##############.O+Ooo.###########",
"#############.+OOO@oo.##########",
"############.++++++@oo.#########",
"###########.++o+@+O@+oo.########",
"##########.+@o++@++O++oo.#######",
"#########.+@+o++O@++O++oo.######",
"########.+@+o+@+O@+@++@+oo.#####",
"#######.++++o+@+O++O@++@+oo ####",
"######.++o+o++@+O++O+@+@++  ####",
"#####XX@++++@o++O+@+O+++@@X ####",
"#####XXX@++@+o+@O+@+O++@XXX#####",
"######XXX@@++o+@++@++@@XXX######",
"#######XXXX@@++++++@@XXXX#######",
"########XXXXX@@@@@@XXXXX########",
"##########XXXXXXXXXXXX##########",
"#############XXXXXX#############",
"################################",
"################################",
"################################",
"################################",
"################################",
"################################"
};
