/* XPM */
static char *skeleton81740594891[] = {
/* columns rows colors chars-per-pixel */
"48 48 12 1 ",
"  c #2B211D",
". c #241527",
"X c #202E37",
"o c #411D31",
"O c #52463F",
"+ c #394A50",
"@ c #577277",
"# c #8A7762",
"$ c #36A48E",
"% c #C2A180",
"& c #89D4AE",
"* c #2B5783",
/* pixels */
"************************************************",
"************************************************",
"************************************************",
"************************************************",
"************************************************",
"************************************************",
"************************************************",
"************************************************",
"**********************O##%%**********&&&&&&&****",
"*********************O#####%***********&&&&&&&**",
"&********************O######%*************&&&&&&",
"&********************OO  %## **************&&&&&",
"&&*******************OO $ % $****************&&&",
"&&*******************OOO## #O*****************&&",
"&&&***************+++**OOO#O*******************&",
"&&&&*************+@++X*  OOO*******************&",
"&&&&&***********+@++XX#OO***********************",
"&&&&&&**********X++XX  #%###%*******************",
"&&&&&&&**********XXXO## %  ##O******************",
"&&&&&&&&&*******## O   #%#OO O*****************&",
"&&&&&&&&&&&****#OO* O##%#     O****************&",
"*&&&&&&&&&&&&*##O**O   % #O** O***************&&",
"***&&&&&&&&&&&&O*** OO##   ** OO**************&&",
"****&&&&&&&&&&&&&***    #O**** O*************&&&",
"******&&&&&&&&&&&&&&  ********  **********&&&&&&",
"********&&&&&&&&&&&&&&&&&&***** O*****&&&&&&&&&&",
"**********&&&&&&&&&&&&&&&&&&&&&&&&&&&&&&&&&&&&&&",
"************&&&&&&&&&&&&&&&&&&&&&&&&&&&&&&&&&&&&",
"**************&&&&&&&&&&&&&&&&&&&&&&&&&&&&&&&&&&",
"****************&&&&&&&&&&&&&&&&&&&&&&&&&&&&&&&&",
"*****************##*&&&&&&&&&&&&&&&&&&&&&&&&****",
"*****************#O****o&&&&&&&&&&&&&&&&********",
"****************%%O*****. ##********************",
"****************%%********##********************",
"****************%O******** #********************",
"***************#O*********  ********************",
"***************#O********* O********************",
"***************#O******** O*********************",
"**************%%*********  *********************",
"*************%#O*********  O********************",
"************************************************",
"************************************************",
"************************************************",
"************************************************",
"************************************************",
"************************************************",
"************************************************",
"************************************************"
};
