/* XPM */
static char *skeleton21740594058[] = {
/* columns rows colors chars-per-pixel */
"48 48 14 1 ",
"  c #2B211D",
". c #241527",
"X c #202E37",
"o c #411D31",
"O c #752438",
"+ c #52463F",
"@ c #394A50",
"# c #215B63",
"$ c #577277",
"% c #8A7762",
"& c #36A48E",
"* c #C2A180",
"= c #89D4AE",
"- c #2B5783",
/* pixels */
"------------------------------------------------",
"------------------------------------------------",
"------------------------------------------------",
"------------------------------------------------",
"------------------------------------------------",
"------------------------------------------------",
"------------------------------------------------",
"-------------------------------+%%**------------",
"------------------------------+%%%%%*-----------",
"------------------------------+%%%%%%*----------",
"------------------------------++  *%% ----------",
"------------------------------++ & * &----------",
"------------------------------+++%% %+----------",
"---------------------------@@@--+++%+-----------",
"--------------------------@$@@X-  +++-----------",
"--------------$$---------@$@@XX%++--------------",
"--------------=$@--------X@@XX  %*%%%*----------",
"------------&=-X@@-------%XXX+%% *  %%+---------",
"----------#&----X+%%---%%%+ +   %*%++ +---------",
"------=--#-------X+++%%++--- +%%*%     +--------",
"----=#&#=---------XX@+++----+   * %+-- +--------",
"----#&#&#------------------- ++%%   --  +-------",
"---=&=&=&=-------------------    %+---- +-------",
"----#&#&#--------------------  ---------  ------",
"----=#&#=------------------..   -.------- +-----",
"------=--------------------.o....O-------- +----",
"----------------------------..oO.o--------- ----",
"----------------------------%.oO. --------------",
"---------------------------%%..O. +-------------",
"---------------------------%%-.o. ++------------",
"--------------------------%%+-.o-- ++-----------",
"-------------------------**+---o--- %%----------",
"-------------------------**----.---- %%---------",
"-------------------------*+---------- %---------",
"-------------------------++----------  ---------",
"-------------------------%+---------- +---------",
"------------------------%%+----------- +--------",
"------------------------**------------  --------",
"-----------------------*%+------------  +-------",
"------------------------------------------------",
"------------------------------------------------",
"------------------------------------------------",
"------------------------------------------------",
"------------------------------------------------",
"------------------------------------------------",
"------------------------------------------------",
"------------------------------------------------",
"------------------------------------------------"
};
