/* XPM */
static char *door01740573068[] = {
/* columns rows colors chars-per-pixel */
"48 48 9 1 ",
"  c #6C5C68",
". c #8C5C6D",
"X c #9E6872",
"o c #B37F7C",
"O c #8590B4",
"+ c #C59F8A",
"@ c #9DB3CA",
"# c white",
"$ c #2B5783",
/* pixels */
"$$$$$$$$$$$$$$$                   $$$$$$$$$$$$$$",
"$$$$$$$$$$$$    +++++++++++++++++    $$$$$$$$$$$",
"$$$$$$$$$$   +++++++++++++++++++++++   $$$$$$$$$",
"$$$$$$$$$  +++++++ooooooooooooo+++++++  $$$$$$$$",
"$$$$$$$$  +++++ooo             ooo+++++  $$$$$$$",
"$$$$$$$  ++++oo                   oo++++  $$$$$$",
"$$$$$$  +++oo     X XoooooooX X     oo+++  $$$$$",
"$$$$$$  ++oo   XoooXooooooXooXoooX   oo++  $$$$$",
"$$$$$  ++oo  XXooooXoooooooooXooooXX  oo++  $$$$",
"$$$$$  ++oo XXooooooooooo+XooooooooXX oo++  $$$$",
"$$$$$  +oo XXoooooooooooo+ oooooooooXX oo+  $$$$",
"$$$$  ++oo XXooooooXoooooo ooXooooooXX oo++  $$$",
"$$$$  ++oo XXoooooooooooooXooXooooooXX oo++  $$$",
"$$$$  +oo XXoooooooXoooooooooXoooooooXX oo+  $$$",
"$$$$  +oo .XooooooX XoooooooX XooooooX. oo+  $$$",
"$$$$  +oo                               oo+  $$$",
"$$$$  +oo Xoo+++++++++++++++++++++++ooX oo+  $$$",
"$$$$  +oo oo+++++++++++++++++++++++++oo oo+  $$$",
"$$$$  +oo oo++  +++++++++++++++++  ++oo oo+  $$$",
"$$$$  +oo oo++  +++++++++++++++++  ++oo oo+  $$$",
"$$$$  +oo ooo+oo+++++++++++++++++oo+ooo oo+  $$$",
"$$$$  +oo XoooooooooooooooooooooooooooX oo+  $$$",
"$$$$  +oo                               oo+  $$$",
"$$$$  +oo .XXXXXXX. .XXXXXXX. .XXXXXXX. oo+  $$$",
"$$$$  +oo XXXXXXXXX XXXXXXXXX XXXXXXXXX oo+  $$$",
"$$$$  +oo XXoooooooXoooooooooXooX  ooXX oo+  $$$",
"$$$$  +oo XXoooooooXoooooooooXooX@# oXX oo+  $$$",
"$$$$  +oo XXooooooooooXooooooXooX # oXX oo+  $$$",
"$$$$  +oo XXoooooooXo+ oooooooooX @ oXX oo+  $$$",
"$$$$  +oo XXoooooooXoooooooooXooX @ oXX oo+  $$$",
"$$$$  +oo XXo+XooooXooXoooooooooX @ oXX oo+  $$$",
"$$$$  +oo XXoo ooooooooooooooXooXOO oXX oo+  $$$",
"$$$$  +oo XXooXooooooooooooooXooX  XoXX oo+  $$$",
"$$$$  +oo XXoooooooXoooooooooXooXXXooXX oo+  $$$",
"$$$$  +oo .XooooooX XoooooooX XooooooX. oo+  $$$",
"$$$$  +oo                               oo+  $$$",
"$$$$  +oo Xoo+++++++++++++++++++++++ooX oo+  $$$",
"$$$$  +oo oo+++++++++++++++++++++++++oo oo+  $$$",
"$$$$  +oo oo++  +++++++++++++++++  ++oo oo+  $$$",
"$$$$  +oo oo++  +++++++++++++++++  ++oo oo+  $$$",
"$$$$  +oo ooo+oo+++++++++++++++++oo+ooo oo+  $$$",
"$$$$  +oo XoooooooooooooooooooooooooooX o o  $$$",
"$$$$  +oo                               oo+  $$$",
"$$$$  o o .XXXXXXX. .XXXXXXX. .XXXXXXX. o o  $$$",
"$$$$  +oo XXXXXXXXX XXXXXXXXX XXX XXXXX o o  $$$",
"$$$$  o o XXoooooooooooooooooXoooXoooXX oo+  $$$",
"$$$$  o o XXoooooooXoooooooooooo+ooooXX o o  $$$",
"$$$$  o   XXoooooooXoooooooooXoooXoooXX   o  $$$"
};
