/* XPM */
static char *door31740573545[] = {
/* columns rows colors chars-per-pixel */
"48 48 8 1 ",
"  c #6C5C68",
". c #8C5C6D",
"X c #9E6872",
"o c #B37F7C",
"O c #8590B4",
"+ c #C59F8A",
"@ c #9DB3CA",
"# c #2B5783",
/* pixels */
"###############                   ##############",
"############    +++++++++++++++++    ###########",
"##########   +++++++++++++++++++++++   #########",
"#########  +++++++ooooooooooooo+++++++  ########",
"########  +++++ooo             ooo+++++  #######",
"#######  ++++oo                   oo++++  ######",
"######  +++oo                       oo+++  #####",
"######  ++oo   X.X                   oo++  #####",
"#####  ++oo  XXXXXX                   oo++  ####",
"#####  ++oo XXXo.XX                   oo++  ####",
"#####  +oo .XXoo XXX                   oo+  ####",
"####  ++oo .XXoX X.X                   oo++  ###",
"####  ++oo .XXoo.X.X                   oo++  ###",
"####  +oo X.XXoXXX.X                    oo+  ###",
"####  +oo . XXX .. .                    oo+  ###",
"####  +oo                               oo+  ###",
"####  +oo X oo+ooooX                    oo+  ###",
"####  +oo oXo+++oooo                    oo+  ###",
"####  +oo ooo ++ooo                     oo+  ###",
"####  +oo oXo ++ooo                     oo+  ###",
"####  +oo oXoo+ooooo                    oo+  ###",
"####  +oo X oooooooX                    oo+  ###",
"####  +oo                               oo+  ###",
"####  +oo . XXX .. .                    oo+  ###",
"####  +oo X XXX .. .                    oo+  ###",
"####  +oo X.XXoXXX.                     oo+  ###",
"####  +oo XXXXoXXX.O@                   oo+  ###",
"####  +oo X.XXoo.X.  @                  oo+  ###",
"####  +oo X.XXoX XX. O                  oo+  ###",
"####  +oo X.XXoXXX.. O                  oo+  ###",
"####  +oo XXX.oX.XX  O                  oo+  ###",
"####  +oo XXX ooXX.OO                   oo+  ###",
"####  +oo X.X.ooXX.                     oo+  ###",
"####  +oo X XXoXXX.X                    oo+  ###",
"####  +oo . XXX .X .                    oo+  ###",
"####  +oo                               oo+  ###",
"####  +oo X oo+ooooX                    oo+  ###",
"####  +oo oXo+++oooo                    oo+  ###",
"####  +oo ooo ++ooo                     oo+  ###",
"####  +oo oXo ++ooo                     oo+  ###",
"####  +oo oXoo+ooooo                    oo+  ###",
"####  +oo X oooooooX                    o o  ###",
"####  +oo                               oo+  ###",
"####  o o . XX. .. .                    o o  ###",
"####  +oo X.XXX .. .                    o o  ###",
"####  o o XXXoooXX.X                    oo+  ###",
"####  o o X.XooXXXXX                    o o  ###",
"####  o   X.XooXXX.X                      o  ###"
};
