/* XPM */
static char *door21740573391[] = {
/* columns rows colors chars-per-pixel */
"48 48 8 1 ",
"  c #6C5C68",
". c #8C5C6D",
"X c #9E6872",
"o c #B37F7C",
"O c #8590B4",
"+ c #C59F8A",
"@ c #9DB3CA",
"# c #2B5783",
/* pixels */
"##############                   ###############",
"###########    +++++++++++++++++    ############",
"#########   +++++++++++++++++++++++   ##########",
"########  +++++++ooooooooooooo+++++++  #########",
"#######  +++++ooo             ooo+++++  ########",
"######  ++++oo                   oo++++  #######",
"#####  +++oo                       oo+++  ######",
"#####  ++oo   XXX.X.X               oo++  ######",
"####  ++oo  XXoXoXX.XX               oo++  #####",
"####  ++oo XXXooo.XXXX               oo++  #####",
"####  +oo .XXoooo XXXXX               oo+  #####",
"###  ++oo .XXooXo X.XXX               oo++  ####",
"###  ++oo .XXoooo.X.XXX               oo++  ####",
"###  +oo X.XXooXoXX.XXX                oo+  ####",
"###  +oo . XXoX .X. .X.                oo+  ####",
"###  +oo                               oo+  ####",
"###  +oo X oo+++ooooooX                oo+  ####",
"###  +oo oXo+++++oooooo                oo+  ####",
"###  +oo ooo ++++oooo o                oo+  ####",
"###  +oo oXo ++++oooo o                oo+  ####",
"###  +oo oXoo+++ooooooo                oo+  ####",
"###  +oo X oooooooooooX                oo+  ####",
"###  +oo                               oo+  ####",
"###  +oo . XXX. ... ...                oo+  ####",
"###  +oo X XXXX ... ...                oo+  ####",
"###  +oo X.XXooXoXX.X                  oo+  ####",
"###  +oo XXXXooXoXX.XO@                oo+  ####",
"###  +oo X.XXoooo.X.X  @               oo+  ####",
"###  +oo X.XXooXo XXX. O               oo+  ####",
"###  +oo X.XXooXoXX.X. O               oo+  ####",
"###  +oo XXX.ooXo.XXX  O               oo+  ####",
"###  +oo XXX ooooXX.XOO                oo+  ####",
"###  +oo X.X.ooooXX.X                  oo+  ####",
"###  +oo X XXooXoXX.XXX                oo+  ####",
"###  +oo . XXoX .X. XX.                oo+  ####",
"###  +oo                               oo+  ####",
"###  +oo X oo+++ooooooX                oo+  ####",
"###  +oo oXo+++++oooooo                oo+  ####",
"###  +oo ooo ++++oooo o                oo+  ####",
"###  +oo oXo ++++oooo o                oo+  ####",
"###  +oo oXoo+++ooooooo                oo+  ####",
"###  +oo X oooooooooooX                o o  ####",
"###  +oo                               oo+  ####",
"###  o o . XXX. ... ...                o o  ####",
"###  +oo X.XXXX ... ...                o o  ####",
"###  o o XXXoooooXX.XXX                oo+  ####",
"###  o o X.XoooXoXXXXXX                o o  ####",
"###  o   X.XoooXoXX.XXX                  o  ####"
};
