/* XPM */
static char *door11740573225[] = {
/* columns rows colors chars-per-pixel */
"48 48 8 1 ",
"  c #6C5C68",
". c #8C5C6D",
"X c #9E6872",
"o c #B37F7C",
"O c #8590B4",
"+ c #C59F8A",
"@ c #9DB3CA",
"# c #2B5783",
/* pixels */
"###############                   ##############",
"############    +++++++++++++++++    ###########",
"##########   +++++++++++++++++++++++   #########",
"#########  +++++++ooooooooooooo+++++++  ########",
"########  +++++ooo             ooo+++++  #######",
"#######  ++++oo                   oo++++  ######",
"######  +++oo      XoooooX X        oo+++  #####",
"######  ++oo   XooXooooXooXoXXX      oo++  #####",
"#####  ++oo  XXoooXoooooooXooXXXX     oo++  ####",
"#####  ++oo XXoooooooo+XoooooXXXXX    oo++  ####",
"#####  +oo XXooooooooo+ ooooooXXXXX    oo+  ####",
"####  ++oo XXoooooXoooo ooXoooXXXXX    oo++  ###",
"####  ++oo XXooooooooooXooXoooXXXXX    oo++  ###",
"####  +oo .XooooooXoooooooXoooXXXXXX    oo+  ###",
"####  +oo ..oooooX XoooooX XooXXXXX.    oo+  ###",
"####  +oo                               oo+  ###",
"####  +oo XXo+++++++++++++++oooooooX    oo+  ###",
"####  +oo Xo+++++++++++++++++ooooooo    oo+  ###",
"####  +oo Xo+  ++++++++++++++oo  ooo    oo+  ###",
"####  +oo Xo+  ++++++++++++++oo  ooo    oo+  ###",
"####  +oo Xoooo+++++++++++++oooooooo    oo+  ###",
"####  +oo XXoooooooooooooooooooooooX    oo+  ###",
"####  +oo                               oo+  ###",
"####  +oo ..XXXXX. .XXXXX. .XXXXXXX.    oo+  ###",
"####  +oo .XXXXXXX XXXXXXX XXXXXXXXX    oo+  ###",
"####  +oo .XooooooXoooooooXooXX  XXX    oo+  ###",
"####  +oo .XooooooXoooooooXooXXO@ XX    oo+  ###",
"####  +oo .XoooooooooXooooXooXX @ XX    oo+  ###",
"####  +oo .XooooooXo+ oooooooXX O XX    oo+  ###",
"####  +oo .XooooooXoooooooXooXX O XX    oo+  ###",
"####  +oo .Xo+XoooXooXoooooooXX O XX    oo+  ###",
"####  +oo .Xoo oooooooooooXooXXOO XX    oo+  ###",
"####  +oo .XooXoooooooooooXooXX  XXX    oo+  ###",
"####  +oo .XooooooXoooooooXooXXXXXXX    oo+  ###",
"####  +oo ..oooooX XoooooX XoXXXXXX.    oo+  ###",
"####  +oo                               oo+  ###",
"####  +oo XXo+++++++++++++++oooooooX    oo+  ###",
"####  +oo Xo+++++++++++++++++ooooooo    oo+  ###",
"####  +oo Xo+  ++++++++++++++oo  ooo    oo+  ###",
"####  +oo Xo+  ++++++++++++++oo  ooo    oo+  ###",
"####  +oo Xoooo+++++++++++++oooooooo    oo+  ###",
"####  +oo XXoooooooooooooooooooooooX    o o  ###",
"####  +oo                               oo+  ###",
"####  o o ..XXXXX. .XXXXX. .XXXXXXX.    o o  ###",
"####  +oo .XXXXXXX XXXXXXX XXXX XXXX    o o  ###",
"####  o o .XooooooooooooooXooXX.XXXX    oo+  ###",
"####  o o .XooooooXooooooooooXXXXXXX    o o  ###",
"####  o   .XooooooXoooooooXooXX XXXX      o  ###"
};
