/* XPM */
static char *door1740572037[] = {
/* columns rows colors chars-per-pixel */
"48 48 8 1 ",
"  c #6C5C68",
". c #8C5C6D",
"X c #9E6872",
"o c #B37F7C",
"O c #8590B4",
"+ c #C59F8A",
"@ c #9DB3CA",
"# c #2B5783",
/* pixels */
"##############                   ###############",
"###########    +++++++++++++++++    ############",
"#########   +++++++++++++++++++++++   ##########",
"########  +++++++ooooooooooooo+++++++  #########",
"#######  +++++ooo             ooo+++++  ########",
"######  ++++oo                   oo++++  #######",
"#####  +++oo                       oo+++  ######",
"#####  ++oo   XX.X                  oo++  ######",
"####  ++oo  XXXoXXX                  oo++  #####",
"####  ++oo XXXoo.XX                  oo++  #####",
"####  +oo .XXooo XXX                  oo+  #####",
"###  ++oo .XXoXo X.X                  oo++  ####",
"###  ++oo .XXooo.X.X                  oo++  ####",
"###  +oo X.XXoXoXX.X                   oo+  ####",
"###  +oo . XXX ... .                   oo+  ####",
"###  +oo                               oo+  ####",
"###  +oo X oo++ooooX                   oo+  ####",
"###  +oo oXo++++oooo                   oo+  ####",
"###  +oo ooo +++ooo                    oo+  ####",
"###  +oo oXo +++ooo                    oo+  ####",
"###  +oo oXoo++ooooo                   oo+  ####",
"###  +oo X ooooooooX                   oo+  ####",
"###  +oo                               oo+  ####",
"###  +oo . XXX ... .                   oo+  ####",
"###  +oo X XXX ... .                   oo+  ####",
"###  +oo X.XXoXoXX.                    oo+  ####",
"###  +oo XXXXoXoXX.O@                  oo+  ####",
"###  +oo X.XXooo.X.  @                 oo+  ####",
"###  +oo X.XXoXo XX. O                 oo+  ####",
"###  +oo X.XXoXoXX.. O                 oo+  ####",
"###  +oo XXX.oXo.XX  O                 oo+  ####",
"###  +oo XXX oooXX.OO                  oo+  ####",
"###  +oo X.X.oooXX.                    oo+  ####",
"###  +oo X XXoXoXX.X                   oo+  ####",
"###  +oo . XXX ..X .                   oo+  ####",
"###  +oo                               oo+  ####",
"###  +oo X oo++ooooX                   oo+  ####",
"###  +oo oXo++++oooo                   oo+  ####",
"###  +oo ooo +++ooo                    oo+  ####",
"###  +oo oXo +++ooo                    oo+  ####",
"###  +oo oXoo++ooooo                   oo+  ####",
"###  +oo X ooooooooX                   o o  ####",
"###  +oo                               oo+  ####",
"###  o o . XX. ... .                   o o  ####",
"###  +oo X.XXX ... .                   o o  ####",
"###  o o XXXooooXX.X                   oo+  ####",
"###  o o X.XooXoXXXX                   o o  ####",
"###  o   X.XooXoXX.X                     o  ####"
};
