/* XPM */
static char *player_b1740484551[] = {
/* columns rows colors chars-per-pixel */
"48 48 18 1 ",
"  c black",
". c #420000",
"X c #7B0C18",
"o c #5A3018",
"O c #422821",
"+ c #214118",
"@ c #5A4131",
"# c #426931",
"$ c #843008",
"% c #C66100",
"& c #C63842",
"* c #EF6563",
"= c #6BAA5A",
"- c #FFB242",
"; c #EF9673",
": c #9CA2AD",
"> c white",
", c #2B5783",
/* pixels */
",,,,,,,,,,,,,,,,,,,,,,,,,,,,,,,,,,,,,,,,,,,,,,,,",
",,,,,,,,,,,,,,,,,,,,,,,,,,,,,,,,,,,,,,,,,,,,,,,,",
",,,,,,,,,,,,,,,,,,,,,,,,,,,,,,,,,,,,,,,,,,,,,,,,",
",,,,,,,,,,,,,,,,,,,,,,,,,,,,,,,,,,,,,,,,,,,,,,,,",
",,,,,,,,,,,,,,,,,,,,,,,,,,,,,,,,,,,,,,,,,,,,,,,,",
",,,,,,,,,,,,,,,,,,,,,,,,,,,,,,,,,,,,,,,,,,,,,,,,",
",,,,,,,,,,,,,,,,,,,,,,,,,,,,,,,,,,,,,,,,,,,,,,,,",
",,,,,,,,,,,,,,,,,,,,,,,,,,,,,,,,,,,,,,,,,,,,,,,,",
",,,,,,,,,,,,,,,,,,,,,,,, ,,,,,,,,,,,,,,,,,,,,,,,",
",,,,,,,,,,,,,,,,,,,,,   * ,  ,,,,,,,,,,,,,,,,,,,",
",,,,,,,,,,,,,,,,,,,, XXX*X & ,,,,,,,,,,,,,,,,,,,",
",,,,,,,,,,,,,,,,,,  .&X*XX&  ,,,,,,,,,,,,,,,,,,,",
",,,,,,,,,,,,,,,,, &X&X.*X&XXX  ,,,,,,,,,,,,,,,,,",
",,,,,,,,,,,,,,,,,,.&X**X&X** &X ,,,,,,,,,,,,,,,,",
",,,,,,,,,,,,,,,,, XX.X*X*XX*&X ,,,,,,,,,,,,,,,,,",
",,,,,,,,,,,,,,,,, &X.X*X*X&*X& ,,,,,,,,,,,,,,,,,",
",,,,,,,,,,,,,,,,, &.X&X&X&*&.& ,,,,,,,,,,,,,,,,,",
",,,,,,,,,,,,,,,,, .&&XXX&XX&&. ,,,,,,,,,,,,,,,,,",
",,,,,,,,,,,,,,,,,  &X.&X&&&X&  ,,,,,,,,,,,,,,,,,",
",,,,,,,,,,,,,,,,, ;&XX.X.X&X&; ,,,,,,,,,,,,,,,,,",
",,,,,,,,,,,,,,,, # ;X.X...X.; # ,,,,,,,,,,,,,,,,",
",,,,,,,,,,,,,,,, =   ......   = ,,,,,,,,,,,,,,,,",
",,,,,,,,,,,,,,,,   =++++++++=   ,,,,,,,,,,,,,,,,",
",,,,,,,,,,,,,,,,% + #======# + %,,,,,,,,,,,,,,,,",
",,,,,,,,,,,,,,, %>  ##+##+##  >% ,,,,,,,,,,,,,,,",
",,,,,,,,,,,,,,, %-$  +####+  $-% ,,,,,,,,,,,,,,,",
",,,,,,,,,,,,,, :>: =+ ++++ += :>: ,,,,,,,,,,,,,,",
",,,,,,,,,,,,,, ::  = #====# =  :: ,,,,,,,,,,,,,,",
",,,,,,,,,,,,,, > # # +#++#+ # # > ,,,,,,,,,,,,,,",
",,,,,,,,,,,,,, $ # +  ++++  + # $ ,,,,,,,,,,,,,,",
",,,,,,,,,,,,,, $ #++  ++++  ++# $ ,,,,,,,,,,,,,,",
",,,,,,,,,,,,,,,  ++++ +##+ ++++  ,,,,,,,,,,,,,,,",
",,,,,,,,,,,,,,,, ++ +++==+++ ++ ,,,,,,,,,,,,,,,,",
",,,,,,,,,,,,,,,,,    +#==#+    ,,,,,,,,,,,,,,,,,",
",,,,,,,,,,,,,,,,,,,   #==#   ,,,,,,,,,,,,,,,,,,,",
",,,,,,,,,,,,,,,,,,, %-%  %-% ,,,,,,,,,,,,,,,,,,,",
",,,,,,,,,,,,,,,,,,, o%o  o%o ,,,,,,,,,,,,,,,,,,,",
",,,,,,,,,,,,,,,,,, OO@O  O@OO ,,,,,,,,,,,,,,,,,,",
",,,,,,,,,,,,,,,,, O@@@O  O@@@O ,,,,,,,,,,,,,,,,,",
",,,,,,,,,,,,,,,,,,  @@@  @@@  ,,,,,,,,,,,,,,,,,,",
",,,,,,,,,,,,,,,,,,,,   ,,   ,,,,,,,,,,,,,,,,,,,,",
",,,,,,,,,,,,,,,,,,,,,,,,,,,,,,,,,,,,,,,,,,,,,,,,",
",,,,,,,,,,,,,,,,,,,,,,,,,,,,,,,,,,,,,,,,,,,,,,,,",
",,,,,,,,,,,,,,,,,,,,,,,,,,,,,,,,,,,,,,,,,,,,,,,,",
",,,,,,,,,,,,,,,,,,,,,,,,,,,,,,,,,,,,,,,,,,,,,,,,",
",,,,,,,,,,,,,,,,,,,,,,,,,,,,,,,,,,,,,,,,,,,,,,,,",
",,,,,,,,,,,,,,,,,,,,,,,,,,,,,,,,,,,,,,,,,,,,,,,,",
",,,,,,,,,,,,,,,,,,,,,,,,,,,,,,,,,,,,,,,,,,,,,,,,"
};
