/* XPM */
static char *Actor1_1_1740481934[] = {
/* columns rows colors chars-per-pixel */
"48 48 25 1 ",
"  c black",
". c #101010",
"X c #292C31",
"o c #420000",
"O c #7B0C18",
"+ c #5A3018",
"@ c #422821",
"# c #214118",
"$ c #5A4131",
"% c #426931",
"& c #5A007B",
"* c #5A616B",
"= c #843008",
"- c #B56539",
"; c #C66100",
": c #C63842",
"> c #EF6563",
", c #6BAA5A",
"< c #FFB242",
"1 c #EF9673",
"2 c #A520C6",
"3 c #9CA2AD",
"4 c #FFC39C",
"5 c white",
"6 c #2B5783",
/* pixels */
"666666666666666666666666666666666666666666666666",
"666666666666666666666666666666666666666666666666",
"666666666666666666666666666666666666666666666666",
"666666666666666666666666666666666666666666666666",
"666666666666666666666666666666666666666666666666",
"666666666666666666666666666666666666666666666666",
"666666666666666666666666666666666666666666666666",
"666666666666666666666666666666666666666666666666",
"66666666666666666666666 666666666666666666666666",
"6666666666666666666  6 >   666666666666666666666",
"6666666666666666666 : O>OOO 66666666666666666666",
"6666666666666666666  :OO>O:o  666666666666666666",
"66666666666666666  OOO:O>oO:O: 66666666666666666",
"6666666666666666 O: >>O:O>>O:o666666666666666666",
"66666666666666666 O:>OO>O>OoOO 66666666666666666",
"66666666666666666 :O>:O>O>OoO: 66666666666666666",
"66666666666666666 :o:>:O:O:Oo: 66666666666666666",
"66666666666666666 o::  11  ::o 66666666666666666",
"66666666666666666  : 3 44 3 :  66666666666666666",
"66666666666666666 1:45&44&54:1 66666666666666666",
"6666666666666666 % 1452442541 % 6666666666666666",
"6666666666666666 , o 444444 o , 6666666666666666",
"6666666666666666   ,# 1441 #,   6666666666666666",
"6666666666666666;5; , +  + , ;5;6666666666666666",
"666666666666666 ;<= % ;<<; % =<; 666666666666666",
"666666666666666 ;<= # ;..; # =<; 666666666666666",
"66666666666666 *3  , ;XXXX; ,  3* 66666666666666",
"66666666666666 353 , .X..X. , 353 66666666666666",
"66666666666666 33#,% -1441- %,#33 66666666666666",
"66666666666666 5;= # 1-44-1 # =;5 66666666666666",
"66666666666666 =<;   ;.XX.;   ;<= 66666666666666",
"66666666666666 =;=  ;X.  .X;  =;= 66666666666666",
"666666666666666     XX.  .XX     666666666666666",
"6666666666666666 #  -1-  -1-  # 6666666666666666",
"66666666666666666   $$$  $$$   66666666666666666",
"666666666666666666  ;<;  ;<;  666666666666666666",
"6666666666666666666 +;+  +;+ 6666666666666666666",
"6666666666666666666 @$@  @$@ 6666666666666666666",
"666666666666666666 @$$@  @$$@ 666666666666666666",
"66666666666666666 @$$ $  $ $$@ 66666666666666666",
"666666666666666666     66 6   666666666666666666",
"666666666666666666666666666666666666666666666666",
"666666666666666666666666666666666666666666666666",
"666666666666666666666666666666666666666666666666",
"666666666666666666666666666666666666666666666666",
"666666666666666666666666666666666666666666666666",
"666666666666666666666666666666666666666666666666",
"666666666666666666666666666666666666666666666666"
};
