/* XPM */
static char *player_w21740484056[] = {
/* columns rows colors chars-per-pixel */
"48 48 26 1 ",
"  c black",
". c #101010",
"X c #211C18",
"o c #292C31",
"O c #420000",
"+ c #7B0C18",
"@ c #5A3018",
"# c #422821",
"$ c #214118",
"% c #5A4131",
"& c #426931",
"* c #5A007B",
"= c #5A616B",
"- c #843008",
"; c #B56539",
": c #C66100",
"> c #C63842",
", c #EF6563",
"< c #6BAA5A",
"1 c #FFB242",
"2 c #EF9673",
"3 c #A520C6",
"4 c #9CA2AD",
"5 c #FFC39C",
"6 c white",
"7 c #2B5783",
/* pixels */
"777777777777777777777777777777777777777777777777",
"777777777777777777777777777777777777777777777777",
"777777777777777777777777777777777777777777777777",
"777777777777777777777777777777777777777777777777",
"777777777777777777777777777777777777777777777777",
"777777777777777777777777777777777777777777777777",
"777777777777777777777777777777777777777777777777",
"777777777777777777777777777777777777777777777777",
"77777777777777777777777777 777777777777777777777",
"777777777777777777777 7 7 + 77777777777777777777",
"77777777777777777777 + + O>+  777777777777777777",
"77777777777777777777  >>+>+>O+ 77777777777777777",
"7777777777777777777 +OOO>+,+,O> 7777777777777777",
"777777777777777777 O+,>++O++,+OO 777777777777777",
"777777777777777777 +>++>+O+>,O>O 777777777777777",
"7777777777777777777 O+>>O+>,+O>O 777777777777777",
"7777777777777777777 +>OO>>+  >O 7777777777777777",
"7777777777777777777 OOO+  24 2 77777777777777777",
"77777777777777777777 O++2+56*5@77777777777777777",
"7777777777777777777  O+O5>5635 77777777777777777",
"777777777777777777 &$ O 525555  7777777777777777",
"777777777777777777    <$ 2255@&$ 777777777777777",
"777777777777777777 :6: < @@@@$<  777777777777777",
"77777777777777777  :1- & 552.&4= 777777777777777",
"7777777777777777 =4:1- $ :.@. =:- 77777777777777",
"777777777777777 46=   $ :-o o -1: 77777777777777",
"777777777777777 =64 &$  -.    -:- 77777777777777",
"7777777777777777 46:- & 2552     777777777777777",
"77777777777777777 -1: &ooo .  777777777777777777",
"77777777777777777 -:- ..ooo  $ 77777777777777777",
"77777777777777777    ....o. $$ 77777777777777777",
"77777777777777777 &<.  ;552; $ 77777777777777777",
"777777777777777777 &  ; ;5552 777777777777777777",
"7777777777777777777 -;2;  ;5%% 77777777777777777",
"777777777777777777 :;;  77 %-:    77777777777777",
"77777777777777777X%:- 77777 :1-#% 77777777777777",
"7777777777777777 #%%# 777777 %%% 777777777777777",
"77777777777777777 #%%# 77777 %X 7777777777777777",
"777777777777777777     777777  77777777777777777",
"777777777777777777777777777777777777777777777777",
"777777777777777777777777777777777777777777777777",
"777777777777777777777777777777777777777777777777",
"777777777777777777777777777777777777777777777777",
"777777777777777777777777777777777777777777777777",
"777777777777777777777777777777777777777777777777",
"777777777777777777777777777777777777777777777777",
"777777777777777777777777777777777777777777777777",
"777777777777777777777777777777777777777777777777"
};
