/* XPM */
static char *_0c4e6e0948049a6d1b50c9581679249i6cO2WSKXuR7AwuE[] = {
/* columns rows colors chars-per-pixel */
"48 48 6 1 ",
"  c None",
". c #091123",
"X c #305080",
"o c #F7FCFC",
"O c #3AA7CE",
"+ c white",
/* pixels */
"................................................",
".XoooooooooooXoooooooXoooooooXoooooooXooooooooX.",
".oOooooooooooOoooooooOoooooooOoooooooOoooooooOo.",
".ooOooooooooo.oooooo..ooooooo.oooooo..ooooooOoo.",
".ooooo.OoooO...OoooO...OoooO...OoooO...Oooooooo.",
".ooooO.......OO......OO......OO......OO...Ooooo.",
".ooooo..OO..OOOO....OOOO....OOOO....OOOO..ooooo.",
".ooooo.OOOO.OOOO.XX.OOOO.OO.OOOO.XX.OOOO..ooooo.",
".Oooo..OOOO..OO.XXXX.OO.OOOO.OO.XXXX.OO.O..oooO.",
".XooO...OO......XXXX....OOOO....XXXX....OO.OooX.",
".................XX......OO......XX......O......",
".ooO..X.....XX.......XX.....XX.......XX.....Ooo.",
".ooo........XX...X..XX......XX...X..XX......ooo.",
".oo......X....XX.XX.XX...X....XX.XX.XX...X...oo.",
".XX..X...XX....X.XX......XX....X.XX......XX..XX.",
"......XX..............XX..............XX........",
"................................................",
"................................................",
".OOX........................................XOO.",
".OOO.XX..................................XX.OOO.",
".OOO.XX..................................XX.OOO.",
".OOX.X....................................X.XOO.",
"................................................",
".XX..X....................................X..XX.",
".XXX.X....................................X.XXX.",
".XX..........................................XX.",
"................................................",
".OOX........................................XOO.",
".OOO.XX..................................XX.OOO.",
".OOO.XX..................................XX.OOO.",
".OOX.X....................................X.XOO.",
"................................................",
"................................................",
".OO..........................................OO.",
".OX..........................................XO.",
".XXX........................................XXX.",
".XXX........................................XXX.",
"................................................",
"................................................",
"..XX........................................XX..",
"..XX........................................XX..",
".....X.XX..............................XX.......",
"..XX...XX............XXXX..............XX...XX..",
"..XXX................XX....X.X.............XXX..",
".XXXX.....XX........................XX.....XXXX.",
".XXX....XOXXX.XX....XXXX...XXX..XX.XXXOX....XXX.",
"..XX....XXOOX.XX.X.XOOOXX.XXXOO.XX.XOOXX....XX..",
" .............................................. "
};
