/* XPM */
static char *coin61740562075[] = {
/* columns rows colors chars-per-pixel */
"32 32 12 1 ",
"  c #77391E",
". c #BD740D",
"X c #914E31",
"o c #867D67",
"O c #DD9201",
"+ c #EEAE02",
"@ c #F4BE16",
"# c #FCD437",
"$ c #A69265",
"% c #DBC49C",
"& c #F7D9AD",
"* c #2B5783",
/* pixels */
"********************************",
"********************************",
"********************************",
"********************************",
"****$$**************************",
"***$%&$*************************",
"***$$%$*************************",
"***o$%&$************************",
"***o$%&$************************",
"***o$%%&$***********************",
"***o$$%&$***$$$$****************",
"***o$$%&&$*$&&&&$$**************",
"****o$%%&$$&&%%%&&$*************",
"****o$$%&&$&%OOO%%&$************",
"****o$$%%&$%O***OO%$************",
"*****o$$%%O%O*****OO************",
"*****o$$OOO$OOO*****************",
"******oO$$$$.##OO*******OOO X***",
"******o$%%$.++@##OOOOOOO@@@+ ***",
"******$%%$.O++++@@@@@@@@@+++.***",
"******$%$.OOOO++++++++++++OO.***",
"******$%$..OOOOO+++++++OOOO.****",
"******$%$.*..OOOOOOOOOOOOO.*****",
"******$%$.***...OOOOOOO...******",
"*******$%$.*****.......*********",
"********$%$..*******************",
"*********$&%%.******************",
"**********$$$*******************",
"********************************",
"********************************",
"********************************",
"********************************"
};
