/* XPM */
static char *coin31740561734[] = {
/* columns rows colors chars-per-pixel */
"32 32 7 1 ",
"  c #16301F",
". c #1C1630",
"X c #30471A",
"o c #31274F",
"O c #4B4071",
"+ c #6B5F96",
"@ c #2B5783",
/* pixels */
"@@@@@@@@@@@@@@@@@@@@@@@@@@@@@@@@",
"@@@@@@@@@@@@@@@@@@@@@@@@@@@@@@@@",
"@@@@@@@@@@@@@@@@@@@@@@@@@@@@@@@@",
"@@@@@@@@@@@@@@@@@@@@@@@@@@@@@@@@",
"@@@@@@@@@@@@@@@@@@@@@@@@@@@@@@@@",
"@@@@@@@@@@@@@@@@@@@@@@@@@@@@@@@@",
"@@@@@@@@@@@@@@  @@@@@@@@@@@@@@@@",
"@@@@@@@@@@@@@ XX @@@@@@@@@@@@@@@",
"@@@@@@@@@@@@@ XX..@@@@@@@@@@@@@@",
"@@@@@@@@@@@@.ooooo.@@@@@@@@@@@@@",
"@@@@@@@@@@@.+o+oOOO.@@@@@@@@@@@@",
"@@@@@@@@@@.++o+oooO+.@@@@@@@@@@@",
"@@@@@@@@@.++o+Oo++.+O.@@@@@@@@@@",
"@@@@@@@@.++ooOOoOOO.oO.@@@@@@@@@",
"@@@@@@@@.++ooOOoOOO.oO.@@@@@@@@@",
"@@@@@@@.++ooO+oO++O.Ooo.@@@@@@@@",
"@@@@@@@.O+o+OOoOOOOO.oO.@@@@@@@@",
"@@@@@@.++ooO+OoOOOOO.Ooo.@@@@@@@",
"@@@@@@.+OoOOOooOOOOO.ooo.@@@@@@@",
"@@@@@@.+Oo+OOoOOOOOO.ooo.@@@@@@@",
"@@@@@@.O+oOOOoOoOOoO.Ooo.@@@@@@@",
"@@@@@@.Oo.OOOoOOooOO.ooo.@@@@@@@",
"@@@@@@@.oo.OOoOOOOo.ooo.@@@@@@@@",
"@@@@@@@@.oo.Oo.ooo..oo.@@@@@@@@@",
"@@@@@@@@@.oo.O.O...oo.@@@@@@@@@@",
"@@@@@@@@@@..o.....o..@@@@@@@@@@@",
"@@@@@@@@@@@@.......@@@@@@@@@@@@@",
"@@@@@@@@@@@@@@@@@@@@@@@@@@@@@@@@",
"@@@@@@@@@@@@@@@@@@@@@@@@@@@@@@@@",
"@@@@@@@@@@@@@@@@@@@@@@@@@@@@@@@@",
"@@@@@@@@@@@@@@@@@@@@@@@@@@@@@@@@",
"@@@@@@@@@@@@@@@@@@@@@@@@@@@@@@@@"
};
