/* XPM */
static char *coin11740560745[] = {
/* columns rows colors chars-per-pixel */
"32 32 12 1 ",
"  c #4B692F",
". c #A03728",
"X c #D34A1B",
"o c #EF6B0D",
"O c #58882B",
"+ c #5FA72D",
"@ c #74C43B",
"# c #FF8C16",
"$ c #FFB04D",
"% c #B5E882",
"& c #FFD6AD",
"* c #2B5783",
/* pixels */
"********************************",
"********************************",
"***********     ****************",
"********    @@+@  **************",
"******   %%@+@@O++ *************",
"****  %%%+@OOOO OOO **  ********",
"*** %%%@OOO@@O++  OO  % ********",
"** @@+OO++O++O+OOO  #O@ ********",
"***  ++++O++O+OO  #X#O+ .*******",
"***** OO+++++O  $$#XO+ #o.******",
"*****X#$OOOO  #$X#$.O+ o#o.*****",
"****X#$$&&&$#$$##X O+ #XX##.****",
"****X#$&&&$$$##$#X O .Xo#o#.****",
"***X#$$&&#$##$##X..  .X#oooX.***",
"***X#$&&$$#$##XX#X...X.oooXX.***",
"***X#$&$$#$##X##oo.X.XoXoooX.***",
"**X##$$#$###o##oo#XoXoooXXoXX.**",
"**X#$$$$#$#o#ooo#XoooXooooXoX.**",
"**X#$$#$$###oo#ooXoooXoooooXX.**",
"**.#$$$##o#oo#ooXoooooXoXoXXX.**",
"**.##$$###o#oooXoooooooooXoX..**",
"**.##$#$#o#ooooooooooooXoXXX..**",
"***.###o#oooooooooooXoXoXXXX.***",
"***.####o#oooooooooooooXoXX..***",
"***.##o#oooooooooXooXoXoXXX..***",
"****.##o#ooooooXoooXoXoXXX..****",
"****.##oooooXooooXooXXXXX...****",
"*****.#ooooXooXoXoXXoXXX...*****",
"******.ooXooXooXoXoXXXX...******",
"*******.XoXXoXXoXXXXXX...*******",
"********..XXXXXXXXXX....********",
"**********...XXXX.....**********",
"*************......*************",
"********************************"
};
