/* XPM */
static char *coin71740562245[] = {
/* columns rows colors chars-per-pixel */
"32 32 7 1 ",
"  c #16301F",
". c #30471A",
"X c #4B692F",
"o c #58882B",
"O c #74C43B",
"+ c #B5E882",
"@ c #2B5783",
/* pixels */
"@@@@@@@@@@@@@@@@@@@@@@@@@@@@@@@@",
"@@@@@@@@@@@@@@@@@@@@@@@@@@@@@@@@",
"@@@@@@@@@@@@@@@@@.@@@@@@@@@@@@@@",
"@@@@@@@@@@@@@@@@@.XXX@@@@@@@@@@@",
"@@@@@@@@@@@@@@@@@.+ooX@@@@@@@@@@",
"@@@@@@@@@@@@@@@....+ooX@@@@@@@@@",
"@@@@@@@@@@@@@@.ooo.+OooX@@@@@@@@",
"@@@@@@@@@@@@@.oooo.OOooX@@@@@@@@",
"@@@@@@@@@@@@.ooOOXX.OOooX@@@@@@@",
"@@@@@@@@@@@@.oOoooX.OOooX@@@@@@@",
"@@@@@@@@@@@.oOoXXXX..OOX.@@@@@@@",
"@@@@@@@@@@@.ooXXX..X...X.@@@@@@@",
"@@@@@@@@@@@.ooX..XXXXX...@@@@@@@",
"@@@@@@@@@@.ooX.XX.X...  @@@@@@@@",
"@@@@@@@@@.ooXXXX.XX.. . @@@@@@@@",
"@@@@@@@@@.oXX.X..X... .  @@@@@@@",
"@@@@@@@@.ooXXX.......    @@@@@@@",
"@@@@@@@@.oXXXX.......    @@@@@@@",
"@@@@@@@@.oX.XXX.......    @@@@@@",
"@@@@@@@.ooXXX.......  .   @@@@@@",
"@@@@@@@.oXXX.X.......     @@@@@@",
"@@@@@@@.oX.X........ .  . @@@@@@",
"@@@@@@@.oXX.X.......    . @@@@@@",
"@@@@@@@.oX.X....... .   . @@@@@@",
"@@@@@@@.oX.... ..      .. @@@@@@",
"@@@@@@@@.X...    ..    .. @@@@@@",
"@@@@@@@@  .   .      ... @@@@@@@",
"@@@@@@@@@  .        ... @@@@@@@@",
"@@@@@@@@@@   ........  @@@@@@@@@",
"@@@@@@@@@@@          @@@@@@@@@@@",
"@@@@@@@@@@@@@@@@@@@@@@@@@@@@@@@@",
"@@@@@@@@@@@@@@@@@@@@@@@@@@@@@@@@"
};
