/* XPM */
static char *player_l1740483261[] = {
/* columns rows colors chars-per-pixel */
"48 48 27 1 ",
"  c black",
". c #101010",
"X c #211C18",
"o c #292C31",
"O c #420000",
"+ c #7B0C18",
"@ c #5A3018",
"# c #422821",
"$ c #214118",
"% c #5A4131",
"& c #426931",
"* c #5A007B",
"= c #5A616B",
"- c #843008",
"; c #B56539",
": c #C66100",
"> c #C63842",
", c #EF6563",
"< c #6BAA5A",
"1 c #FFB242",
"2 c #EF9673",
"3 c #A520C6",
"4 c #848284",
"5 c #9CA2AD",
"6 c #FFC39C",
"7 c white",
"8 c #2B5783",
/* pixels */
"888888888888888888888888888888888888888888888888",
"888888888888888888888888888888888888888888888888",
"888888888888888888888888888888888888888888888888",
"888888888888888888888888888888888888888888888888",
"888888888888888888888888888888888888888888888888",
"888888888888888888888888888888888888888888888888",
"888888888888888888888888888888888888888888888888",
"888888888888888888888888888888888888888888888888",
"8888888888888888888888 8888888888888888888888888",
"888888888888888888888 + 8 8 88888888888888888888",
"8888888888888888888  +>O + + 8888888888888888888",
"888888888888888888 +O>+>+>>  8888888888888888888",
"88888888888888888 >O,+,+>OOO+ 888888888888888888",
"8888888888888888 OO+,++O++>,+O 88888888888888888",
"8888888888888888 O>O,>+O+>++>+ 88888888888888888",
"8888888888888888 O>O+,>+O>>+O 888888888888888888",
"88888888888888888 O>  +>>OO>+ 888888888888888888",
"888888888888888888 2 52  +OOO 888888888888888888",
"888888888888888888@6*76+2++O 8888888888888888888",
"888888888888888888 6376>6O+O  888888888888888888",
"88888888888888888  666626 O $& 88888888888888888",
"8888888888888888 $&@6622 $<    88888888888888888",
"8888888888888888 &<$@@@@ < :7: 88888888888888888",
"88888888888888888 $&.266 & -1:  8888888888888888",
"8888888888888888 =5..@.: $ -1:  8888888888888888",
"888888888888888 -:= o o-: $   5= 888888888888888",
"888888888888888 :1-    .-  $ 575 888888888888888",
"888888888888888 -:-  2662  -:75 8888888888888888",
"8888888888888888  4  . 262 :1-  8888888888888888",
"888888888888888888 $ .o oo -:-  8888888888888888",
"888888888888888888 $ ;@ .o.   & 8888888888888888",
"888888888888888888 $ #@ 262; <& 8888888888888888",
"8888888888888888888  .# ;22; & 88888888888888888",
"88888888888888888888 -:  %%#  888888888888888888",
"88888888888888888888 -:  #%% 8888888888888888888",
"88888888888888888888..## :11:8888888888888888888",
"8888888888888888888.## #X-:: 8888888888888888888",
"8888888888888888888     X#%%% 888888888888888888",
"8888888888888888888888 #%%%X% 888888888888888888",
"8888888888888888888888     8  888888888888888888",
"888888888888888888888888888888888888888888888888",
"888888888888888888888888888888888888888888888888",
"888888888888888888888888888888888888888888888888",
"888888888888888888888888888888888888888888888888",
"888888888888888888888888888888888888888888888888",
"888888888888888888888888888888888888888888888888",
"888888888888888888888888888888888888888888888888",
"888888888888888888888888888888888888888888888888"
};
