/* XPM */
static char *player_w1740483905[] = {
/* columns rows colors chars-per-pixel */
"48 48 27 1 ",
"  c black",
". c #101010",
"X c #211C18",
"o c #292C31",
"O c #420000",
"+ c #7B0C18",
"@ c #5A3018",
"# c #422821",
"$ c #214118",
"% c #5A4131",
"& c #426931",
"* c #5A007B",
"= c #5A616B",
"- c #843008",
"; c #B56539",
": c #C66100",
"> c #C63842",
", c #EF6563",
"< c #6BAA5A",
"1 c #FFB242",
"2 c #EF9673",
"3 c #A520C6",
"4 c #848284",
"5 c #9CA2AD",
"6 c #FFC39C",
"7 c white",
"8 c #2B5783",
/* pixels */
"888888888888888888888888888888888888888888888888",
"888888888888888888888888888888888888888888888888",
"888888888888888888888888888888888888888888888888",
"888888888888888888888888888888888888888888888888",
"888888888888888888888888888888888888888888888888",
"888888888888888888888888888888888888888888888888",
"888888888888888888888888888888888888888888888888",
"888888888888888888888888888888888888888888888888",
"8888888888888888888888888 8888888888888888888888",
"88888888888888888888 8 8 + 888888888888888888888",
"8888888888888888888 + + O>+  8888888888888888888",
"8888888888888888888  >>+>+>O+ 888888888888888888",
"888888888888888888 +OOO>+,+,O> 88888888888888888",
"88888888888888888 O+,>++O++,+OO 8888888888888888",
"88888888888888888 +>++>+O+>,O>O 8888888888888888",
"888888888888888888 O+>>O+>,+O>O 8888888888888888",
"888888888888888888 +>OO>>+  >O 88888888888888888",
"888888888888888888 OOO+  25 2 888888888888888888",
"8888888888888888888 O++2+67*6@888888888888888888",
"888888888888888888  O+O6>6736 888888888888888888",
"88888888888888888 &$ O 626666  88888888888888888",
"88888888888888888    <$ 2266@&$ 8888888888888888",
"88888888888888888 :7: < @@@@$<& 8888888888888888",
"8888888888888888  :1- & 662.&$ 88888888888888888",
"8888888888888888  :1- $ :.@..5= 8888888888888888",
"888888888888888 =5   $ :-o o =:- 888888888888888",
"888888888888888 575 $  -.    -1: 888888888888888",
"8888888888888888 57:-  2662  -:- 888888888888888",
"8888888888888888  -1: 262 .  4  8888888888888888",
"8888888888888888  -:- oo o. $ 888888888888888888",
"8888888888888888 &   .o. @; $ 888888888888888888",
"8888888888888888 &< ;262 @# $ 888888888888888888",
"88888888888888888 & ;22; #.  8888888888888888888",
"888888888888888888  #%%  :- 88888888888888888888",
"8888888888888888888 %%#  :- 88888888888888888888",
"8888888888888888888:11: ##..88888888888888888888",
"8888888888888888888 ::-X# ##.8888888888888888888",
"888888888888888888 %%%#X     8888888888888888888",
"888888888888888888 %X%%%# 8888888888888888888888",
"888888888888888888  8     8888888888888888888888",
"888888888888888888888888888888888888888888888888",
"888888888888888888888888888888888888888888888888",
"888888888888888888888888888888888888888888888888",
"888888888888888888888888888888888888888888888888",
"888888888888888888888888888888888888888888888888",
"888888888888888888888888888888888888888888888888",
"888888888888888888888888888888888888888888888888",
"888888888888888888888888888888888888888888888888"
};
