/* XPM */
static char *e55d0f11be0a4ae9b91215ce4bc4011f7Z93XUpvjYb4Lxp7[] = {
/* columns rows colors chars-per-pixel */
"48 48 184 2 ",
"   c None",
".  c #0E151F",
"X  c #171819",
"o  c #3E0D0A",
"O  c #3D100D",
"+  c #2A131B",
"@  c #291B17",
"#  c #331114",
"$  c #0D1522",
"%  c #111622",
"&  c #1F1725",
"*  c #181B23",
"=  c #1D1A29",
"-  c #261620",
";  c #2B2F34",
":  c #2E3133",
">  c #460B03",
",  c #470E07",
"<  c #510700",
"1  c #4C1205",
"2  c #45130D",
"3  c #4E1409",
"4  c #571B16",
"5  c #561509",
"6  c #611A1A",
"7  c #6B1611",
"8  c #55261D",
"9  c #5D241B",
"0  c #65251C",
"q  c #64291B",
"w  c #6D291C",
"e  c #652214",
"r  c #4A2725",
"t  c #5C2C22",
"y  c #562B27",
"u  c #4B312D",
"i  c #443C3A",
"p  c #5B3835",
"a  c #642E24",
"s  c #692D22",
"d  c #7C2C24",
"f  c #752E2B",
"g  c #7C2C2A",
"h  c #6D342C",
"j  c #643429",
"k  c #72312C",
"l  c #673532",
"z  c #6B3333",
"x  c #643B34",
"c  c #64373B",
"v  c #713131",
"b  c #3C3D42",
"n  c #573E43",
"m  c #6C3E49",
"M  c #39404A",
"N  c #474748",
"B  c #4B4A5E",
"V  c #464E54",
"C  c #5C4551",
"Z  c #564C58",
"A  c #4F575C",
"S  c #585455",
"D  c #64494E",
"F  c #744F48",
"G  c #6C5347",
"H  c #68585D",
"J  c #78605C",
"K  c #685960",
"L  c #676464",
"P  c #70606B",
"I  c #7C726A",
"U  c #77726E",
"Y  c #646670",
"T  c #766E7E",
"R  c #7C6B7B",
"E  c #6C747E",
"W  c #727374",
"Q  c #77737D",
"!  c #8E2616",
"~  c #8B261B",
"^  c #842A1B",
"/  c #89281E",
"(  c #922514",
")  c #902619",
"_  c #822A23",
"`  c #872721",
"'  c #AD4E3B",
"]  c #A74E3C",
"[  c #B44B35",
"{  c #B24C39",
"}  c #B84B36",
"|  c #A5513F",
" . c #A9503C",
".. c #8C5B4E",
"X. c #9C5545",
"o. c #95574A",
"O. c #9B534A",
"+. c #92594B",
"@. c #8D5A54",
"#. c #855C58",
"$. c #925653",
"%. c #9F5E5E",
"&. c #A74F42",
"*. c #A94E41",
"=. c #A15243",
"-. c #A15248",
";. c #A85042",
":. c #A75E58",
">. c #866759",
",. c #99625F",
"<. c #A1605A",
"1. c #8E656C",
"2. c #87686E",
"3. c #926565",
"4. c #986168",
"5. c #836973",
"6. c #876776",
"7. c #877A78",
"8. c #AA857A",
"9. c #736E82",
"0. c #7D6B81",
"q. c #6C7383",
"w. c #66738B",
"e. c #6B718B",
"r. c #717185",
"t. c #737A82",
"y. c #71718B",
"u. c #7B7F85",
"i. c #7E848F",
"p. c #878A94",
"a. c #8F9893",
"s. c #A5978B",
"d. c #BC958D",
"f. c #B29C87",
"g. c #A69D9D",
"h. c #B89499",
"j. c #9CA19B",
"k. c #BCAA99",
"l. c #9B9EAC",
"z. c #9C9CB1",
"x. c #949FB8",
"c. c #A59CA5",
"v. c #AA99A3",
"b. c #A29CAA",
"n. c #A998A8",
"m. c #99A0A5",
"M. c #97A0AF",
"N. c #9BA2AB",
"B. c #96A0B5",
"V. c #9AA3B2",
"C. c #A9A4AB",
"Z. c #A4A5A7",
"A. c #B0ABA7",
"S. c #A3A7B3",
"D. c #A4AAB5",
"F. c #C39192",
"G. c #C5A694",
"H. c #C5B298",
"J. c #CBC7BC",
"K. c #D6CDBE",
"L. c #E2CBB4",
"P. c #E7CAB7",
"I. c #F2C8B7",
"U. c #D9CBCB",
"Y. c #DBD3C7",
"T. c #CCCED5",
"R. c #C7CFDD",
"E. c #CBCEDB",
"W. c #D5C9D5",
"Q. c #CDD0D4",
"!. c #CBD0DC",
"~. c #D5D7DC",
"^. c #E4C4C6",
"/. c #E0CAC8",
"(. c #E7D0C0",
"). c #E2DED3",
"_. c #E3E1DC",
"`. c #E0E2D7",
"'. c #C5CEE2",
"]. c #CACCE1",
"[. c #DEDFE4",
"{. c #EBEAEE",
"}. c #E7E6EA",
"|. c #FEFFFF",
/* pixels */
"                                                                                                ",
"                                                                                                ",
"                                                                                                ",
"                                                                                                ",
"                                                                                                ",
"                                                                                                ",
"                                          j 9 8 j                                               ",
"                                        q +.o.h x p                                             ",
"                                      q X. .] =.h c n H Q                                       ",
"                                    d.1  .[ ' d z 2.c.N.!.~.                                    ",
"                                    2 X.' { _ z 6.c.E.!.R.q.S.                                  ",
"                                    1 =.' ^ k 1.n.E.E.R.q.R.q.V.                                ",
"                                  a 1 | ' d 1.n.E.'.V.M.R.R.E.q.D.                              ",
"                                  t o.;.;.k 5.9.V.q.R.R.. E.% l.i.                              ",
"                                  t o.=.d z 5.z.q.'.$ E.. T.% N.p.                              ",
"                                  a > o.k o 5.b.q.R.M T.i U.b S.                                ",
"                                    O h l O # 5.T q.|.U k.k.W V                                 ",
"                                    O z o o l c 5.v.g./.P.G.A.Z.                                ",
"                                    2 h > k f f z 3.d.I.I.G.7.C.                                ",
"                                  y l k < -.d f z @.@...j x J                                   ",
"                                  y l :.&.&.O.z h./.^.#.>.F                                     ",
"                                  4 <.-.*.=.v 1.n.W.W.U.G G                                     ",
"                              s 5 X.&.*._ k 2.R z.z.E.T.c.H                                     ",
"                            0 X.| ' { ~ g 4.R y.e.x.x.l.u.                                      ",
"                          w =.' { { ! / g 4.0.e.x.w.w.q.A                     |.|.|.            ",
"                        w X.' [ ( ( ) ` g c R y.e.'.B.V.V a.              |.|.|.Q.{.            ",
"                      w =.' { ( ( ! ~ ` g z 6.9.B ].].l.t.: L         |.|.|.Q.[.{.              ",
"                    q X.' } ( ! / ` ` _ g 6 m D C C R T l.Z.J.7.  |.|.|.Q.~.}.                  ",
"                  h X.' [ ( ! / _ g g g 7 g g f f f z ^.v.g.I Y.|.|.T.~.}.                      ",
"                  a =.[ [ ! ^ d k > %.6 _ ` / / { *.O.z ^.I s.k.K.Y._.                          ",
"                  h X. .{ ^ k 4 0 4 2 4 _ / ) [ { ' O.@.8.P.f.k.L.G s.                          ",
"                    e X.;.d 9       O k _ / ' ' ' =.,.3.8.L.(.>.H.H.                            ",
"                    a ..+.3         o k d d O.O.$.3.6.R 5.D                                     ",
"                      t #.8       r x z k $.F.h.# + T B b.C.                                    ",
"                        x         u p # h.v.v.v.+ P = r.l.C.                                    ",
"                                    @ @ c.E T.b.& & q.r.b.Z                                     ",
"                                    ).X W E.T.* = B B 9.- 7.                                    ",
"                                    S j.m.T.Q.; E q.q.= H C                                     ",
"                                    L m.N.m.N S t.q.l.= K                                       ",
"                                    N.E E * `.    t.N.b.S                                       ",
"                                    N.N.N.X `.                                                  ",
"                                    Y N.Q.Q.                                                    ",
"                                                                                                ",
"                                                                                                ",
"                                                                                                ",
"                                                                                                ",
"                                                                                                ",
"                                                                                                "
};
