/* XPM */
static char *player_l21740483477[] = {
/* columns rows colors chars-per-pixel */
"48 48 26 1 ",
"  c black",
". c #101010",
"X c #211C18",
"o c #292C31",
"O c #420000",
"+ c #7B0C18",
"@ c #5A3018",
"# c #422821",
"$ c #214118",
"% c #5A4131",
"& c #426931",
"* c #5A007B",
"= c #5A616B",
"- c #843008",
"; c #B56539",
": c #C66100",
"> c #C63842",
", c #EF6563",
"< c #6BAA5A",
"1 c #FFB242",
"2 c #EF9673",
"3 c #A520C6",
"4 c #9CA2AD",
"5 c #FFC39C",
"6 c white",
"7 c #2B5783",
/* pixels */
"777777777777777777777777777777777777777777777777",
"777777777777777777777777777777777777777777777777",
"777777777777777777777777777777777777777777777777",
"777777777777777777777777777777777777777777777777",
"777777777777777777777777777777777777777777777777",
"777777777777777777777777777777777777777777777777",
"777777777777777777777777777777777777777777777777",
"777777777777777777777777777777777777777777777777",
"777777777777777777777777777777777777777777777777",
"7777777777777777777777777 7777777777777777777777",
"777777777777777777777777 + 7 7 77777777777777777",
"7777777777777777777777  +>O + + 7777777777777777",
"777777777777777777777 +O>+>+>>  7777777777777777",
"77777777777777777777 >O,+,+>OOO+ 777777777777777",
"7777777777777777777 OO+,++O++>,+O 77777777777777",
"7777777777777777777 O>O,>+O+>++>+ 77777777777777",
"7777777777777777777 O>O+,>+O>>+O 777777777777777",
"77777777777777777777 O>  +>>OO>+ 777777777777777",
"777777777777777777777 2 42  +OOO 777777777777777",
"777777777777777777777@5*65+2++O 7777777777777777",
"777777777777777777777 5365>5O+O  777777777777777",
"77777777777777777777  555525 O $& 77777777777777",
"7777777777777777777 $&@5522 $<    77777777777777",
"7777777777777777777 &<$@@@@ < :6: 77777777777777",
"77777777777777777777  &.255 & -1:  7777777777777",
"777777777777777777777 ..@.: $  -:  7777777777777",
"77777777777777777777 - o o-:   =4= 7777777777777",
"77777777777777777777 :    .- &=64= 7777777777777",
"77777777777777777777 -  255 -:64=  7777777777777",
"777777777777777777777 & . 2 :1-= & 7777777777777",
"77777777777777777777 &$ .o  -:- && 7777777777777",
"77777777777777777777 $  ;@ .     < 7777777777777",
"777777777777777777777  ;;;  252; <&7777777777777",
"777777777777777777777  #%;  ;22; & 7777777777777",
"777777777777777777    -%# 77 %%#  77777777777777",
"777777777777777777 %#-:- 7777 #%% 77777777777777",
"7777777777777777777 %.# 77777 :11: 7777777777777",
"77777777777777777777 # 77777 X-::  7777777777777",
"777777777777777777777 777777 %%%X% 7777777777777",
"7777777777777777777777777777    7  7777777777777",
"777777777777777777777777777777777777777777777777",
"777777777777777777777777777777777777777777777777",
"777777777777777777777777777777777777777777777777",
"777777777777777777777777777777777777777777777777",
"777777777777777777777777777777777777777777777777",
"777777777777777777777777777777777777777777777777",
"777777777777777777777777777777777777777777777777",
"777777777777777777777777777777777777777777777777"
};
