/* XPM */
static char *result[] = {
/* columns rows colors chars-per-pixel */
"48 48 11 1 ",
"  c #2B5783",
". c #552D24",
"X c #795048",
"o c #A46F59",
"O c #BE865F",
"+ c #E1B26E",
"@ c #F6CA74",
"# c #374A8F",
"$ c #3F6AD4",
"% c #D2DDE8",
"& c #2B5783",
/* pixels */
"&&&&&&&&&&&&&&&&&&&&&&&&&&&&&&&&&&&&&&&&&&&&&&&&",
"&&&&&&&&&&&&&&&&&&&&&&&&&&&&&&&&&&&&&&&&&&&&&&&&",
"&&&&&&&&&&&&&&&&&&&&&&&&&&&&&&&&&&&&&&&&&&&&&&&&",
"&&&&&&&&&&&&&&&&&&&&&&&&&&&&&&&&&&&&&&&&&&&&&&&&",
"&&&&&&&&&&&&&&&&&&&&&&&&&&&&&&&&&&&&&&&&&&&&&&&&",
"&&&&&&&&&&&&&&&&&&&&&&&&&&&&&&&&&&&&&&&&&&&&&&&&",
"&&&&&&&&&&&&&&&&&&&&&&&&&&&&&&&&&&&&&&&&&&&&&&&&",
"&&&&&&&&&&&&&&&&&&&&&&&&&&&&&&&&&&&&&&&&&&&&&&&&",
"&&&&&&&&&&&&&&&&&&&&&&&&&&&&&&&&&&&&&&&&&&&&&&&&",
"&&&&&&&&&&&&&&&&&&&&&&&&&&&&&&&&&&&&&&&&&&&&&&&&",
"&&&&&&&&&&&&&&&&&&&&&&&&&&&&&&&&&&&&&&&&&&&&&&&&",
"&&&&&&&&&&&&&&&&&&&&&&&&&&&&&&&&&&&&&&&&&&&&&&&&",
"&&&&&&&&&&&&&&&&&&&&&&&&&&&&&&&&&&&&&&&&&&&&&&&&",
"&&&&&&&&&&&&&&&&&&&&&&......&&&&&&&&&&&&&&&&&&&&",
"&&&&&&&&&&&&&&&&&&&&&.+@@@+O.&&&&&&&&&&&&&&&&&&&",
"&&&&&&&&&&&&&&&&&&&&.+@@@+++O.&&&&&&&&&&&&&&&&&&",
"&&&&&&&&&&&&&&&&&&&.+++@++++O.&&&&&&&&&&&&&&&&&&",
"&&&&&&&&&&&&&&&&&&&.+++++++OOo.&&&&&&&&&&&&&&&&&",
"&&&&&&&&&&&&&&&&&&&.O++++OOOOo.&&&&&&&&&&&&&&&&&",
"&&&&&&&&&&&&&&&&&&&.OOooOOOXOo.&&&&&&&&&&&&&&&&&",
"&&&&&&&&&&&&&&&&&&&.Oo  oOo+Xo.&&&&&&&&&&&&&&&&&",
"&&&&&&&&&&&&&&&&&&&.+O#$ O++X.&&&&&&&&&&&&&&&&&&",
"&&&&&&&&&&&&&&&&&&&.@+$%OOOX.&&&&&&&&&&&&&&&&&&&",
"&&&&&&&&&&&&&&&&&&&.+++++OX.&&&&&&&&&&&&&&&&&&&&",
"&&&&&&&&&&&&&&&&&&&&.+++OXo.&&&&&&&&&&&&&&&&&&&&",
"&&&&&&&&&&&&&&&&&&&&&.XXXOO.&&&&&&&&&&&&&&&&&&&&",
"&&&&&&&&&&&&&&&&&&&&&&.OO+Oo.&&&&&&&&&&&&&&&&&&&",
"&&&&&&&&&&&&&&&&&&&&&&.@+X+O.&&&&&&&&&&&&&&&&&&&",
"&&&&&&&&&&&&&&&&&&&&&&.++.XO.&&&&&&&&&&&&&&&&&&&",
"&&&&&&&&&&&&&&&&&&&&&..++.@+.&&&&&&&&&&&&&&&&&&&",
"&&&&&&&&&&&&&&&&&&&&&..+O.+O.&&&&&&&&&&&&&&&&&&&",
"&&&&&&&&&&&&&&&&&&&&&..OOo..&&&&&&&&&&&&&&&&&&&&",
"&&&&&&&&&&&&&&&&&&&&&&.oOo.&&&&&&&&&&&&&&&&&&&&&",
"&&&&&&&&&&&&&&&&&&&&&&..+O..&&&&&&&&&&&&&&&&&&&&",
"&&&&&&&&&&&&&&&&&&&&&&&.+O..&&&&&&&&&&&&&&&&&&&&",
"&&&&&&&&&&&&&&&&&&&&&&.+Oo..&&&&&&&&&&&&&&&&&&&&",
"&&&&&&&&&&&&&&&&&&&&&&&...&&&&&&&&&&&&&&&&&&&&&&",
"&&&&&&&&&&&&&&&&&&&&&&&&&&&&&&&&&&&&&&&&&&&&&&&&",
"&&&&&&&&&&&&&&&&&&&&&&&&&&&&&&&&&&&&&&&&&&&&&&&&",
"&&&&&&&&&&&&&&&&&&&&&&&&&&&&&&&&&&&&&&&&&&&&&&&&",
"&&&&&&&&&&&&&&&&&&&&&&&&&&&&&&&&&&&&&&&&&&&&&&&&",
"&&&&&&&&&&&&&&&&&&&&&&&&&&&&&&&&&&&&&&&&&&&&&&&&",
"&&&&&&&&&&&&&&&&&&&&&&&&&&&&&&&&&&&&&&&&&&&&&&&&",
"&&&&&&&&&&&&&&&&&&&&&&&&&&&&&&&&&&&&&&&&&&&&&&&&",
"&&&&&&&&&&&&&&&&&&&&&&&&&&&&&&&&&&&&&&&&&&&&&&&&",
"&&&&&&&&&&&&&&&&&&&&&&&&&&&&&&&&&&&&&&&&&&&&&&&&",
"&&&&&&&&&&&&&&&&&&&&&&&&&&&&&&&&&&&&&&&&&&&&&&&&",
"&&&&&&&&&&&&&&&&&&&&&&&&&&&&&&&&&&&&&&&&&&&&&&&&"
};
