/* XPM */
static char *player_f31740482603[] = {
/* columns rows colors chars-per-pixel */
"48 48 25 1 ",
"  c black",
". c #101010",
"X c #292C31",
"o c #420000",
"O c #7B0C18",
"+ c #5A3018",
"@ c #422821",
"# c #214118",
"$ c #5A4131",
"% c #426931",
"& c #5A007B",
"* c #5A616B",
"= c #843008",
"- c #B56539",
"; c #C66100",
": c #C63842",
"> c #EF6563",
", c #6BAA5A",
"< c #FFB242",
"1 c #EF9673",
"2 c #A520C6",
"3 c #9CA2AD",
"4 c #FFC39C",
"5 c white",
"6 c #2B5783",
/* pixels */
"666666666666666666666666666666666666666666666666",
"666666666666666666666666666666666666666666666666",
"666666666666666666666666666666666666666666666666",
"666666666666666666666666666666666666666666666666",
"666666666666666666666666666666666666666666666666",
"666666666666666666666666666666666666666666666666",
"666666666666666666666666666666666666666666666666",
"666666666666666666666666666666666666666666666666",
"666666666666666666666666 66666666666666666666666",
"666666666666666666666 6 >   66666666666666666666",
"66666666666666666666 : O>OOO 6666666666666666666",
"66666666666666666666  :OO>O:o  66666666666666666",
"666666666666666666  OOO:O>oO:O: 6666666666666666",
"66666666666666666 O: >>O:O>>O:o66666666666666666",
"666666666666666666 O:>OO>O>OoOO 6666666666666666",
"666666666666666666 :O>:O>O>OoO: 6666666666666666",
"666666666666666666 :oO:O:O:>:o: 6666666666666666",
"666666666666666666 o::  11  ::o 6666666666666666",
"666666666666666666  : 3 44 3 :  6666666666666666",
"66666666666666666  1:45&44&54:1  666666666666666",
"66666666666666666 % 1452442541 % 666666666666666",
"66666666666666666 , o 444444 o , 666666666666666",
"66666666666666666   ,# 1441 #,   666666666666666",
"66666666666666666;5; , +  + , ;5;666666666666666",
"6666666666666666 ;<= % ;<<; % =<; 66666666666666",
"6666666666666666 ;<= # ;..; # =<; 66666666666666",
"6666666666666666 *3   ;XXXX; , 3* 66666666666666",
"6666666666666666 353  .X..X. ,# * 66666666666666",
"6666666666666666  5;= -1441- %,#  66666666666666",
"6666666666666666  =<;  -44-1 #%%# 66666666666666",
"6666666666666666  =;=  .X.;  #%#  66666666666666",
"6666666666666666      ;. .X;  %#  66666666666666",
"66666666666666666 ##  X. .XX  ## 666666666666666",
"666666666666666666 #  -- -1-  # 6666666666666666",
"6666666666666666666   @- $$$ 6 66666666666666666",
"6666666666666666666666 @ ;<; 6666666666666666666",
"66666666666666666666666  @$@ 6666666666666666666",
"666666666666666666666666 $$$@ 666666666666666666",
"666666666666666666666666 $$$@ 666666666666666666",
"6666666666666666666666666    6666666666666666666",
"666666666666666666666666666666666666666666666666",
"666666666666666666666666666666666666666666666666",
"666666666666666666666666666666666666666666666666",
"666666666666666666666666666666666666666666666666",
"666666666666666666666666666666666666666666666666",
"666666666666666666666666666666666666666666666666",
"666666666666666666666666666666666666666666666666",
"666666666666666666666666666666666666666666666666"
};
