/* XPM */
static char *result[] = {
/* columns rows colors chars-per-pixel */
"48 48 7 1 ",
"  c #2B5783",
". c #795048",
"X c #A46F59",
"o c #BE865F",
"O c #E1B26E",
"+ c #F6CA74",
"@ c #2B5783",
/* pixels */
"@@@@@@@@@@@@@@@@@@@@@@@@@@@@@@@@@@@@@@@@@@@@@@@@",
"@@@@@@@@@@@@@@@@@@@@@@@@@@@@@@@@@@@@@@@@@@@@@@@@",
"@@@@@@@@@@@@@@@@@@@@@@@@@@@@@@@@@@@@@@@@@@@@@@@@",
"@@@@@@@@@@@@@@@@@@@@@@@@@@@@@@@@@@@@@@@@@@@@@@@@",
"@@@@@@@@@@@@@@@@@@@@@@@@@@@@@@@@@@@@@@@@@@@@@@@@",
"@@@@@@@@@@@@@@@@@@@@@@@@@@@@@@@@@@@@@@@@@@@@@@@@",
"@@@@@@@@@@@@@@@@@@@@@@@@@@@@@@@@@@@@@@@@@@@@@@@@",
"@@@@@@@@@@@@@@@@@@@@@@@@@@@@@@@@@@@@@@@@@@@@@@@@",
"@@@@@@@@@@@@@@@@@@@@@@@@@@@@@@@@@@@@@@@@@@@@@@@@",
"@@@@@@@@@@@@@@@@@@@@@@@@@@@@@@@@@@@@@@@@@@@@@@@@",
"@@@@@@@@@@@@@@@@@@@@@@@@@@@@@@@@@@@@@@@@@@@@@@@@",
"@@@@@@@@@@@@@@@@@@@@@@@@@@@@@@@@@@@@@@@@@@@@@@@@",
"@@@@@@@@@@@@@@@@@@@@@     @@@@@@@@@@@@@@@@@@@@@@",
"@@@@@@@@@@@@@@@@@@@@ oOOOo @@@@@@@@@@@@@@@@@@@@@",
"@@@@@@@@@@@@@@@@@@@ oOO+OOo @@@@@@@@@@@@@@@@@@@@",
"@@@@@@@@@@@@@@@@@@ oOO+++OOo @@@@@@@@@@@@@@@@@@@",
"@@@@@@@@@@@@@@@@@@ oOO+++OOo @@@@@@@@@@@@@@@@@@@",
"@@@@@@@@@@@@@@@@@  oOOO+OOOo  @@@@@@@@@@@@@@@@@@",
"@@@@@@@@@@@@@@@@@  ooOOOOOoo  @@@@@@@@@@@@@@@@@@",
"@@@@@@@@@@@@@@@@@  oooOOOooo  @@@@@@@@@@@@@@@@@@",
"@@@@@@@@@@@@@@@@@@ XoooooooX @@@@@@@@@@@@@@@@@@@",
"@@@@@@@@@@@@@@@@@@ XXoooooXX @@@@@@@@@@@@@@@@@@@",
"@@@@@@@@@@@@@@@@@@@ XXoooXX @@@@@@@@@@@@@@@@@@@@",
"@@@@@@@@@@@@@@@@@@@@ XXXXX @@@@@@@@@@@@@@@@@@@@@",
"@@@@@@@@@@@@@@@@@@@@       @@@@@@@@@@@@@@@@@@@@@",
"@@@@@@@@@@@@@@@@@@@ XXoooXo @@@@@@@@@@@@@@@@@@@@",
"@@@@@@@@@@@@@@@@@@ oooOOOooO @@@@@@@@@@@@@@@@@@@",
"@@@@@@@@@@@@@@@@@@ oXOO+OOoo @@@@@@@@@@@@@@@@@@@",
"@@@@@@@@@@@@@@@@@ XX O+++O o @@@@@@@@@@@@@@@@@@@",
"@@@@@@@@@@@@@@@@@ X  O++OO o @@@@@@@@@@@@@@@@@@@",
"@@@@@@@@@@@@@@@@@@ @ oO+Oo X @@@@@@@@@@@@@@@@@@@",
"@@@@@@@@@@@@@@@@@@@@ Xoooo  @@@@@@@@@@@@@@@@@@@@",
"@@@@@@@@@@@@@@@@@@@@ X. .o @@@@@@@@@@@@@@@@@@@@@",
"@@@@@@@@@@@@@@@@@@@@ XX OO @@@@@@@@@@@@@@@@@@@@@",
"@@@@@@@@@@@@@@@@@@@@@   oO @@@@@@@@@@@@@@@@@@@@@",
"@@@@@@@@@@@@@@@@@@@@@@@@  @@@@@@@@@@@@@@@@@@@@@@",
"@@@@@@@@@@@@@@@@@@@@@@@@@@@@@@@@@@@@@@@@@@@@@@@@",
"@@@@@@@@@@@@@@@@@@@@@@@@@@@@@@@@@@@@@@@@@@@@@@@@",
"@@@@@@@@@@@@@@@@@@@@@@@@@@@@@@@@@@@@@@@@@@@@@@@@",
"@@@@@@@@@@@@@@@@@@@@@@@@@@@@@@@@@@@@@@@@@@@@@@@@",
"@@@@@@@@@@@@@@@@@@@@@@@@@@@@@@@@@@@@@@@@@@@@@@@@",
"@@@@@@@@@@@@@@@@@@@@@@@@@@@@@@@@@@@@@@@@@@@@@@@@",
"@@@@@@@@@@@@@@@@@@@@@@@@@@@@@@@@@@@@@@@@@@@@@@@@",
"@@@@@@@@@@@@@@@@@@@@@@@@@@@@@@@@@@@@@@@@@@@@@@@@",
"@@@@@@@@@@@@@@@@@@@@@@@@@@@@@@@@@@@@@@@@@@@@@@@@",
"@@@@@@@@@@@@@@@@@@@@@@@@@@@@@@@@@@@@@@@@@@@@@@@@",
"@@@@@@@@@@@@@@@@@@@@@@@@@@@@@@@@@@@@@@@@@@@@@@@@",
"@@@@@@@@@@@@@@@@@@@@@@@@@@@@@@@@@@@@@@@@@@@@@@@@"
};
